<?xml version="1.0" standalone="no"?>
<!DOCTYPE svg PUBLIC "-//W3C//DTD SVG 20010904//EN"
 "http://www.w3.org/TR/2001/REC-SVG-20010904/DTD/svg10.dtd">
<svg version="1.0" xmlns="http://www.w3.org/2000/svg"
 width="800.000000pt" height="800.000000pt" viewBox="0 0 800.000000 800.000000"
 preserveAspectRatio="xMidYMid meet">
<metadata>
Created by potrace 1.11, written by Peter Selinger 2001-2013
</metadata>
<g transform="translate(0.000000,800.000000) scale(0.100000,-0.100000)"
fill="#000000" stroke="none">
<path d="M3850 6489 c-165 -12 -344 -41 -492 -80 l-38 -10 0 -669 c0 -369 2
-670 4 -670 3 0 32 16 65 35 79 46 193 91 310 122 130 35 381 44 515 19 185
-35 329 -93 476 -191 269 -179 443 -424 527 -744 35 -130 43 -381 19 -516 -48
-260 -166 -487 -350 -670 -241 -241 -542 -365 -886 -365 -149 0 -252 15 -384
57 -378 119 -690 431 -810 811 -58 183 -56 145 -56 1388 0 629 -4 1144 -8
1144 -4 0 -48 -26 -97 -58 -311 -203 -600 -502 -785 -814 -235 -395 -351 -818
-351 -1278 -1 -734 313 -1416 872 -1894 595 -510 1395 -709 2159 -540 1140
254 1950 1262 1951 2429 1 401 -82 755 -259 1115 -228 461 -605 848 -1065
1094 -393 210 -886 316 -1317 285z"/>
<path d="M3872 4750 c-403 -73 -685 -461 -622 -857 49 -313 273 -557 580 -634
73 -18 270 -18 340 0 252 64 449 238 536 471 96 256 58 516 -106 733 -94 124
-254 232 -405 272 -74 19 -251 27 -323 15z"/>
</g>
</svg>
